{"title":"Qissa (2015) [1CD] Audio Cleaned DVDSCR Xvid Mp3 M2TV Exclusive","uid":11716672,"size":744064421,"categoryP":"video","categoryS":"movies","magnet":"?xt=urn:btih:083338281a96cffb9929b0809ae52cfdfd29f19e&amp;dn=Qissa+%282015%29+%5B1CD%5D+Audio+Cleaned+DVDSCR+Xvid+Mp3+M2TV+Exclusive+&amp;tr=udp%3A%2F%2Ftracker.openbittorrent.com%3A80&amp;tr=udp%3A%2F%2Fopen.demonii.com%3A1337&amp;tr=udp%3A%2F%2Ftracker.coppersurfer.tk%3A6969&amp;tr=udp%3A%2F%2Fexodus.desync.com%3A6969","seeders":4,"leechers":3,"uploader":"makintos13","files":14,"time":1424612134,"description":"Qissa (2015) [1CD] Audio Cleaned DVDSCR Xvid Mp3 M2TV Exclusive \n\n\n\nscreens:\n\n &lt;a href=&quot;\nhttp://imgsleek.com/img-54e9cd0369bba.html&quot; rel=&quot;nofollow&quot; target=&quot;_NEW&quot;&gt;\nhttp://imgsleek.com/img-54e9cd0369bba.html&lt;/a&gt;\n &lt;a href=&quot;\nhttp://imgsleek.com/img-54e9cd036e140.html&quot; rel=&quot;nofollow&quot; target=&quot;_NEW&quot;&gt;\nhttp://imgsleek.com/img-54e9cd036e140.html&lt;/a&gt;\n &lt;a href=&quot;\nhttp://imgsleek.com/img-54e9cd0372317.html&quot; rel=&quot;nofollow&quot; target=&quot;_NEW&quot;&gt;\nhttp://imgsleek.com/img-54e9cd0372317.html&lt;/a&gt;\n &lt;a href=&quot;\nhttp://imgsleek.com/img-54e9cd0376647.html&quot; rel=&quot;nofollow&quot; target=&quot;_NEW&quot;&gt;\nhttp://imgsleek.com/img-54e9cd0376647.html&lt;/a&gt;\n &lt;a href=&quot;\nhttp://imgsleek.com/img-54e9cd037a920.html&quot; rel=&quot;nofollow&quot; target=&quot;_NEW&quot;&gt;\nhttp://imgsleek.com/img-54e9cd037a920.html&lt;/a&gt;\n &lt;a href=&quot;\nhttp://imgsleek.com/img-54e9cd037f3a6.html&quot; rel=&quot;nofollow&quot; target=&quot;_NEW&quot;&gt;\nhttp://imgsleek.com/img-54e9cd037f3a6.html&lt;/a&gt;\n &lt;a href=&quot;\nhttp://imgsleek.com/img-54e9cd03861dc.html&quot; rel=&quot;nofollow&quot; target=&quot;_NEW&quot;&gt;\nhttp://imgsleek.com/img-54e9cd03861dc.html&lt;/a&gt;\n &lt;a href=&quot;\nhttp://imgsleek.com/img-54e9cd0389ff7.html&quot; rel=&quot;nofollow&quot; target=&quot;_NEW&quot;&gt;\nhttp://imgsleek.com/img-54e9cd0389ff7.html&lt;/a&gt;\n &lt;a href=&quot;\nhttp://imgsleek.com/img-54e9cd038deae.html&quot; rel=&quot;nofollow&quot; target=&quot;_NEW&quot;&gt;\nhttp://imgsleek.com/img-54e9cd038deae.html&lt;/a&gt;\n &lt;a href=&quot;\nhttp://imgsleek.com/img-54e9cd0392035.html&quot; rel=&quot;nofollow&quot; target=&quot;_NEW&quot;&gt;\nhttp://imgsleek.com/img-54e9cd0392035.html&lt;/a&gt;\n\n\n\nMovie:............Qissa\nSource: ..........DVDSCR @ M2TV\nYear:.............2015[/color]\n\nGeneral\nComplete name                            : C:Qissa.avi\nFormat                                   : AVI\nFormat/Info                              : Audio Video Interleave\nFile size                                : 698 MiB\nDuration                                 : 1h 48mn\nOverall bit rate                         : 898 Kbps\n\nVideo\nID                                       : 0\nFormat                                   : MPEG-4 Visual\nFormat profile                           : Advanced Simple@L5\nFormat settings, BVOP                    : 2\nFormat settings, QPel                    : No\nFormat settings, GMC                     : No warppoints\nFormat settings, Matrix                  : Default (H.263)\nCodec ID                                 : XVID\nCodec ID/Hint                            : XviD\nDuration                                 : 1h 48mn\nBit rate                                 : 796 Kbps\nWidth                                    : 640 pixels\nHeight                                   : 272 pixels\nDisplay aspect ratio                     : 16:9\nFrame rate                               : 23.976 fps\nColor space                              : YUV\nChroma subsampling                       : 4:2:0\nBit depth                                : 8 bits\nScan type                                : Progressive\nCompression mode                         : Lossy\nBits/(Pixel*Frame)                       : 0.191\nStream size                              : 618 MiB (89%)\nWriting library                          : XviD 1.2.1 (UTC 2008-12-04)\n\nAudio\nID                                       : 1\nFormat                                   : MPEG Audio\nFormat version                           : Version 1\nFormat profile                           : Layer 3\nMode                                     : Joint stereo\nMode extension                           : MS Stereo\nCodec ID                                 : 55\nCodec ID/Hint                            : MP3\nDuration                                 : 1h 48mn\nBit rate mode                            : Constant\nBit rate                                 : 96.0 Kbps\nChannel(s)                               : 2 channels\nSampling rate                            : 32.0 KHz\nCompression mode                         : Lossy\nStream size                              : 74.6 MiB (11%)\nAlignment                                : Aligned on interleaves\nInterleave, duration                     : 167 ms (4.00 video frames)\nInterleave, preload duration             : 216 ms\nTitle                                    : VTS_02_1 T01 2_0ch 192Kbps DELAY 0ms\nWriting library                          : LAME3.99r\nEncoding settings                        : -m j -V 4 -q 2 -lowpass 15.1 -b 96","torrent":{"xt":"urn:btih:083338281a96cffb9929b0809ae52cfdfd29f19e","amp;dn":"Qissa+%282015%29+%5B1CD%5D+Audio+Cleaned+DVDSCR+Xvid+Mp3+M2TV+Exclusive+","amp;tr":["udp%3A%2F%2Ftracker.openbittorrent.com%3A80","udp%3A%2F%2Fopen.demonii.com%3A1337","udp%3A%2F%2Ftracker.coppersurfer.tk%3A6969","udp%3A%2F%2Fexodus.desync.com%3A6969"],"infoHash":"083338281a96cffb9929b0809ae52cfdfd29f19e","infoHashBuffer":{"type":"Buffer","data":[8,51,56,40,26,150,207,251,153,41,176,128,154,229,44,253,253,41,241,158]},"announce":[],"urlList":[]}}